<svg width="11" height="11" viewBox="0 0 11 11" fill="none" xmlns="http://www.w3.org/2000/svg">
<g clip-path="url(#clip0)">
<path d="M4.12703 0H0.460407C0.336193 0 0.228761 0.0453258 0.138059 0.136053C0.0473323 0.226754 0.00200653 0.334162 0.00200653 0.4583V10.5416C0.00200653 10.6657 0.0473323 10.7732 0.138059 10.8639C0.228836 10.9546 0.336269 11 0.460407 11H4.12713C4.25127 11 4.35868 10.9546 4.44938 10.8639C4.54011 10.7732 4.58543 10.6658 4.58543 10.5416V0.4583C4.58543 0.334087 4.54011 0.226754 4.44928 0.136053C4.3586 0.0453258 4.25117 0 4.12703 0Z" fill="black"/>
<path d="M10.864 0.136053C10.7732 0.0453258 10.6658 0 10.5417 0H6.87501C6.75087 0 6.64332 0.0453258 6.55277 0.136053C6.46194 0.226729 6.41651 0.334162 6.41651 0.4583V10.5416C6.41651 10.6657 6.46194 10.7732 6.55277 10.8639C6.64329 10.9546 6.75085 11 6.87501 11H10.5417C10.6658 11 10.7732 10.9546 10.864 10.8639C10.9546 10.7732 11 10.6658 11 10.5416V0.4583C10.9999 0.334087 10.9547 0.226754 10.864 0.136053Z" fill="black"/>
</g>
<defs>
<clipPath id="clip0">
<rect width="11" height="11" fill="white"/>
</clipPath>
</defs>
</svg>
